HIERARCHY
ROOT Hips
{
  OFFSET 5.80788e-005 67.184 3.4734
  CHANNELS 6 Xposition Yposition Zposition Zrotation Xrotation Yrotation
  JOINT Chest
  {
    OFFSET 0 8.7983 -4.7612
    CHANNELS 3 Zrotation Xrotation Yrotation
    JOINT Chest2
    {
      OFFSET 0 8.0291 0.4195
      CHANNELS 3 Zrotation Xrotation Yrotation
      JOINT Chest3
      {
        OFFSET 0 9.9351 -2.2114
        CHANNELS 3 Zrotation Xrotation Yrotation
        JOINT Neck
        {
          OFFSET 0 22.3885 -0.4656
          CHANNELS 3 Zrotation Xrotation Yrotation
          JOINT Head
          {
            OFFSET -0.0001 12.643 3.4389
            CHANNELS 3 Zrotation Xrotation Yrotation
            End Site
            {
              OFFSET 0.0001 17.6655 0.5274
            }
          }
        }
        JOINT LeftCollar
        {
          OFFSET 2.2603 21.606 7.4023
          CHANNELS 3 Zrotation Xrotation Yrotation
          JOINT LeftShoulder
          {
            OFFSET 13.5163 -1.1332 -5.0146
            CHANNELS 3 Zrotation Xrotation Yrotation
            JOINT LeftElbow
            {
              OFFSET -0.0995 -28.05 -0.2431
              CHANNELS 3 Zrotation Xrotation Yrotation
              JOINT LeftWrist
              {
                OFFSET 0.0679 -23.3996 -0.1402
                CHANNELS 3 Zrotation Xrotation Yrotation
                JOINT LeftFinger1
                {
                  OFFSET 0.7932 -9.069 2.5189
                  CHANNELS 3 Zrotation Xrotation Yrotation
                  JOINT LeftFinger11
                  {
                    OFFSET -0.8272 -3.3923 0.5977
                    CHANNELS 3 Zrotation Xrotation Yrotation
                    JOINT LeftFinger12
                    {
                      OFFSET -0.5649 -2.3158 0.4082
                      CHANNELS 3 Zrotation Xrotation Yrotation
                      End Site
                      {
                        OFFSET -0.4919 -1.6479 0.2673
                      }
                    }
                  }
                }
                JOINT LeftFinger2
                {
                  OFFSET 0.9159 -9.2044 0.2193
                  CHANNELS 3 Zrotation Xrotation Yrotation
                  JOINT LeftFinger21
                  {
                    OFFSET 0.0117 -4.1944 -0.0248
                    CHANNELS 3 Zrotation Xrotation Yrotation
                    JOINT LeftFinger22
                    {
                      OFFSET 0.0071 -2.3249 -0.0142
                      CHANNELS 3 Zrotation Xrotation Yrotation
                      End Site
                      {
                        OFFSET -0.1475 -2.0882 0.0028
                      }
                    }
                  }
                }
                JOINT LeftFinger3
                {
                  OFFSET 0.6113 -8.7231 -2.0637
                  CHANNELS 3 Zrotation Xrotation Yrotation
                  JOINT LeftFinger31
                  {
                    OFFSET -0.1927 -3.8059 -0.2383
                    CHANNELS 3 Zrotation Xrotation Yrotation
                    JOINT LeftFinger32
                    {
                      OFFSET -0.1091 -2.1688 -0.1362
                      CHANNELS 3 Zrotation Xrotation Yrotation
                      End Site
                      {
                        OFFSET -0.2358 -1.9176 -0.0906
                      }
                    }
                  }
                }
                JOINT LeftFinger4
                {
                  OFFSET -0.6151 -8.0947 -3.5641
                  CHANNELS 3 Zrotation Xrotation Yrotation
                  JOINT LeftFinger41
                  {
                    OFFSET -0.4882 -2.341 -0.6462
                    CHANNELS 3 Zrotation Xrotation Yrotation
                    JOINT LeftFinger42
                    {
                      OFFSET -0.3575 -1.7167 -0.4742
                      CHANNELS 3 Zrotation Xrotation Yrotation
                      End Site
                      {
                        OFFSET -0.4187 -1.5237 -0.3496
                      }
                    }
                  }
                }
                JOINT LeftFinger0
                {
                  OFFSET -1.42 -1.8761 1.4223
                  CHANNELS 3 Zrotation Xrotation Yrotation
                  JOINT LeftFinger01
                  {
                    OFFSET -1.1471 -3.4929 2.6334
                    CHANNELS 3 Zrotation Xrotation Yrotation
                    JOINT LeftFinger02
                    {
                      OFFSET -0.823 -2.3 1.6571
                      CHANNELS 3 Zrotation Xrotation Yrotation
                      End Site
                      {
                        OFFSET -0.5822 -1.6914 1.1582
                      }
                    }
                  }
                }
              }
            }
          }
        }
        JOINT RightCollar
        {
          OFFSET -2.2603 21.606 7.4023
          CHANNELS 3 Zrotation Xrotation Yrotation
          JOINT RightShoulder
          {
            OFFSET -13.5187 -1.1334 -5.0155
            CHANNELS 3 Zrotation Xrotation Yrotation
            JOINT RightElbow
            {
              OFFSET 0.0994 -28.0499 -0.2431
              CHANNELS 3 Zrotation Xrotation Yrotation
              JOINT RightWrist
              {
                OFFSET -0.0679 -23.3996 -0.1402
                CHANNELS 3 Zrotation Xrotation Yrotation
                JOINT RightFinger1
                {
                  OFFSET -0.7932 -9.0691 2.5189
                  CHANNELS 3 Zrotation Xrotation Yrotation
                  JOINT RightFinger11
                  {
                    OFFSET 0.8272 -3.3923 0.5977
                    CHANNELS 3 Zrotation Xrotation Yrotation
                    JOINT RightFinger12
                    {
                      OFFSET 0.565 -2.3158 0.4082
                      CHANNELS 3 Zrotation Xrotation Yrotation
                      End Site
                      {
                        OFFSET 0.4919 -1.6479 0.2673
                      }
                    }
                  }
                }
                JOINT RightFinger2
                {
                  OFFSET -0.916 -9.2044 0.2193
                  CHANNELS 3 Zrotation Xrotation Yrotation
                  JOINT RightFinger21
                  {
                    OFFSET -0.0117 -4.1944 -0.0248
                    CHANNELS 3 Zrotation Xrotation Yrotation
                    JOINT RightFinger22
                    {
                      OFFSET -0.0071 -2.3249 -0.0142
                      CHANNELS 3 Zrotation Xrotation Yrotation
                      End Site
                      {
                        OFFSET 0.1475 -2.0882 0.0028
                      }
                    }
                  }
                }
                JOINT RightFinger3
                {
                  OFFSET -0.6113 -8.7231 -2.0637
                  CHANNELS 3 Zrotation Xrotation Yrotation
                  JOINT RightFinger31
                  {
                    OFFSET 0.1927 -3.8059 -0.2383
                    CHANNELS 3 Zrotation Xrotation Yrotation
                    JOINT RightFinger32
                    {
                      OFFSET 0.1091 -2.1688 -0.1362
                      CHANNELS 3 Zrotation Xrotation Yrotation
                      End Site
                      {
                        OFFSET 0.2358 -1.9176 -0.0906
                      }
                    }
                  }
                }
                JOINT RightFinger4
                {
                  OFFSET 0.6151 -8.0947 -3.564
                  CHANNELS 3 Zrotation Xrotation Yrotation
                  JOINT RightFinger41
                  {
                    OFFSET 0.4882 -2.341 -0.6462
                    CHANNELS 3 Zrotation Xrotation Yrotation
                    JOINT RightFinger42
                    {
                      OFFSET 0.3574 -1.7166 -0.4742
                      CHANNELS 3 Zrotation Xrotation Yrotation
                      End Site
                      {
                        OFFSET 0.4187 -1.5237 -0.3496
                      }
                    }
                  }
                }
                JOINT RightFinger0
                {
                  OFFSET 1.4199 -1.8761 1.4221
                  CHANNELS 3 Zrotation Xrotation Yrotation
                  JOINT RightFinger01
                  {
                    OFFSET 1.1472 -3.4929 2.6336
                    CHANNELS 3 Zrotation Xrotation Yrotation
                    JOINT RightFinger02
                    {
                      OFFSET 0.8229 -2.3 1.6571
                      CHANNELS 3 Zrotation Xrotation Yrotation
                      End Site
                      {
                        OFFSET 0.5822 -1.6914 1.1582
                      }
                    }
                  }
                }
              }
            }
          }
        }
      }
    }
  }
  JOINT RightHip
  {
    OFFSET -9.412 3.9771 -0.7758
    CHANNELS 3 Zrotation Xrotation Yrotation
    JOINT RightKnee
    {
      OFFSET -0.7531 -40.938 0
      CHANNELS 3 Zrotation Xrotation Yrotation
      JOINT RightAnkle
      {
        OFFSET 0 -40.1986 0
        CHANNELS 3 Zrotation Xrotation Yrotation
        JOINT RightToe
        {
          OFFSET 0 -4.4182 9.239
          CHANNELS 3 Zrotation Xrotation Yrotation
          End Site
          {
            OFFSET 0 0 6.1981
          }
        }
      }
    }
  }
  JOINT LeftHip
  {
    OFFSET 9.4119 3.9773 -0.7758
    CHANNELS 3 Zrotation Xrotation Yrotation
    JOINT LeftKnee
    {
      OFFSET 0.7532 -40.9383 0
      CHANNELS 3 Zrotation Xrotation Yrotation
      JOINT LeftAnkle
      {
        OFFSET 0 -40.1986 0
        CHANNELS 3 Zrotation Xrotation Yrotation
        JOINT LeftToe
        {
          OFFSET 0 -4.4182 9.239
          CHANNELS 3 Zrotation Xrotation Yrotation
          End Site
          {
            OFFSET 0 0 6.1981
          }
        }
      }
    }
  }
}
MOTION
Frames:	6
Frame Time:	0.0333333
-0.60667 60.4491 7.19915 -1.12501e-010 2.17657 2.96217e-009 -0.636801 1.2698 -0.239488 -1.26875 2.54216 -0.465011 -1.26875 2.54217 -0.465012 14.8837 2.34122 -1.3525 7.30481 -4.92631 9.11407 4.26292 6.17901 -16.8262 37.0567 -5.17847 21.1378 -72.1137 -43.0439 -52.3722 -6.94275 8.51583 -0.108257 -1.78221e-006 3.29912e-007 -1.6192e-006 0 0 -3.18055e-015 3.18055e-015 -1.59028e-015 -6.36111e-015 -1.78221e-006 3.29912e-007 -1.6192e-006 -0.0128365 0.0023221 8.47639e-005 -3.18055e-015 1.27222e-014 -0 -1.78221e-006 3.29912e-007 -1.6192e-006 -0.016109 0.00298749 0.000861717 6.57612e-006 1.52445e-005 1.07465e-005 -1.78221e-006 3.29912e-007 -1.6192e-006 -0.0126528 0.00314712 0.00284906 1.76556e-031 -1.59028e-015 6.36111e-015 -1.78221e-006 3.29912e-007 -1.6192e-006 0 0 -3.18055e-015 3.18055e-015 -1.59028e-015 -6.36111e-015 -5.44586 5.79 11.3493 -36.3339 -7.29679 -16.9217 71.112 -43.518 51.8886 8.19597 8.39968 0.704336 -6.36111e-015 -6.36111e-015 9.54166e-015 -6.70211e-006 2.11442e-005 -1.2725e-005 -2.64496e-006 -1.59804e-006 -8.1927e-007 -6.36111e-015 -6.36111e-015 9.54166e-015 0.012928 0.0023264 -9.69143e-005 1.91126e-006 -2.06441e-006 -1.68436e-006 -6.36111e-015 -6.36111e-015 9.54166e-015 0.0163339 0.00305498 -0.000887439 -3.53113e-031 6.36111e-015 3.18055e-015 -6.36111e-015 -6.36111e-015 9.54166e-015 0.0146112 0.00370667 -0.00328659 -3.18055e-015 0 9.54166e-015 -6.36111e-015 -6.36111e-015 9.54166e-015 -6.70211e-006 2.11442e-005 -1.2725e-005 -2.64496e-006 -1.59804e-006 -8.1927e-007 -11.2758 -25.1445 -21.9491 -5.82432 54.0552 4.31547 12.9699 -25.666 5.62353 -1.7111e-006 -4.68673e-007 1.53483e-006 13.3141 -24.7463 23.6982 5.35523 53.8395 -4.00962 -13.7461 -24.769 -7.58699 -4.41358e-007 -1.12656e-007 1.59552e-006 
-0.60667 60.4113 7.01305 2.65664e-007 2.85464 -9.13484e-008 -0.635591 1.0106 -0.243805 -1.26717 2.02383 -0.476492 -1.26717 2.02382 -0.47649 15.0239 2.67655 -1.40922 7.35054 -4.67976 9.17991 4.1704 6.71044 -16.6871 37.0567 -5.17847 21.1378 -72.4562 -43.0666 -52.6223 -6.91922 8.65061 -0.270387 -3.53113e-031 3.18055e-015 6.36111e-015 1.59028e-014 -1.59028e-015 1.27222e-014 -1.00469e-005 -8.98603e-006 -6.96797e-006 -3.53113e-031 3.18055e-015 6.36111e-015 -0.0128146 0.00230908 7.7228e-005 2.92182e-006 -5.2949e-007 4.21543e-007 -3.53113e-031 3.18055e-015 6.36111e-015 -0.0160407 0.00298829 0.000851172 -2.93902e-006 7.84483e-007 -3.47551e-007 -3.53113e-031 3.18055e-015 6.36111e-015 -0.0126247 0.00311212 0.00283225 -2.30162e-006 -2.14679e-006 2.52287e-006 -3.53113e-031 3.18055e-015 6.36111e-015 1.59028e-014 -1.59028e-015 1.27222e-014 -1.00469e-005 -8.98603e-006 -6.96797e-006 -5.36132 6.30884 11.2149 -36.3339 -7.29674 -16.9217 71.4451 -43.5414 52.1331 8.19267 8.53418 0.871615 -1.41245e-030 6.36111e-015 1.27222e-014 1.8214e-006 -9.68099e-007 1.6773e-006 -3.18055e-015 0 9.54166e-015 -1.41245e-030 6.36111e-015 1.27222e-014 0.0129699 0.00231753 -7.60435e-005 -1.27222e-014 1.59028e-014 -6.36111e-015 -1.41245e-030 6.36111e-015 1.27222e-014 0.0163323 0.00303091 -0.000869505 6.36111e-015 3.18055e-015 3.18055e-015 -1.41245e-030 6.36111e-015 1.27222e-014 0.0145673 0.00366701 -0.00325798 -3.53113e-031 -3.18055e-015 -6.36111e-015 -1.41245e-030 6.36111e-015 1.27222e-014 1.8214e-006 -9.68099e-007 1.6773e-006 -3.18055e-015 0 9.54166e-015 -11.1583 -26.0345 -21.684 -5.82331 54.0503 4.31534 12.9534 -25.6978 5.22588 -8.47754e-007 -1.76664e-007 -3.82975e-008 13.1669 -25.6528 23.3613 5.35434 53.8346 -4.01025 -13.7376 -24.8277 -7.10319 2.73329e-016 -3.38338e-007 -3.18055e-015 
-0.606681 60.3746 6.82652 -3.36905e-007 3.53262 -5.77716e-008 -0.634316 0.751488 -0.24808 -1.26553 1.50565 -0.487885 -1.26553 1.50565 -0.487884 15.1641 3.01164 -1.46686 7.39598 -4.43326 9.24549 4.07631 7.24186 -16.547 37.0567 -5.17844 21.1378 -72.799 -43.0881 -52.8727 -6.89533 8.78533 -0.432694 1.27004e-006 4.81187e-006 5.82116e-006 3.18055e-015 1.59028e-015 -0 3.18055e-015 1.59028e-015 -0 1.27004e-006 4.81187e-006 5.82116e-006 -0.0128186 0.00230551 7.64587e-005 -3.18055e-015 6.36111e-015 -6.36111e-015 1.27004e-006 4.81187e-006 5.82116e-006 -0.0160391 0.00298348 0.000849158 3.18055e-015 0 -0 1.27004e-006 4.81187e-006 5.82116e-006 -0.0125647 0.00311211 0.00281978 9.54166e-015 6.36111e-015 3.18055e-015 1.27004e-006 4.81187e-006 5.82116e-006 3.18055e-015 1.59028e-015 -0 3.18055e-015 1.59028e-015 -0 -5.27566 6.8277 11.0797 -36.3339 -7.29677 -16.9217 71.7784 -43.5638 52.3778 8.18896 8.66859 1.03895 -1.76556e-031 -3.18055e-015 -3.18055e-015 6.36111e-015 -3.18055e-015 -3.18055e-015 -1.26698e-006 -1.09815e-006 1.12987e-006 -1.76556e-031 -3.18055e-015 -3.18055e-015 0.0129713 0.00232022 -8.38679e-005 3.53113e-031 3.18055e-015 -6.36111e-015 -1.76556e-031 -3.18055e-015 -3.18055e-015 0.0162968 0.0030276 -0.000869772 -3.20609e-006 -2.90613e-006 -3.61083e-006 -1.76556e-031 -3.18055e-015 -3.18055e-015 0.0145893 0.00366076 -0.003249 6.36111e-015 -3.18055e-015 -6.36111e-015 -1.76556e-031 -3.18055e-015 -3.18055e-015 6.36111e-015 -3.18055e-015 -3.18055e-015 -1.26698e-006 -1.09815e-006 1.12987e-006 -11.0354 -26.9236 -21.4149 -5.8222 54.0454 4.31518 12.9364 -25.7295 4.82813 -8.47773e-007 -5.14812e-007 -3.64515e-008 13.0125 -26.5582 23.0193 5.35335 53.8296 -4.01073 -13.7284 -24.8863 -6.61913 -4.24024e-007 3.13862e-008 -1.81633e-008 
-0.606705 60.3389 6.63957 -7.14966e-007 4.21045 1.63091e-008 -0.633038 0.492608 -0.252336 -1.26397 0.987964 -0.499241 -1.26397 0.987962 -0.49924 15.3048 3.34607 -1.52517 7.44108 -4.18684 9.31083 3.98096 7.77276 -16.4058 37.0567 -5.17847 21.1378 -73.1419 -43.1086 -53.1231 -6.87105 8.91995 -0.595126 1.80245e-006 -3.17947e-007 1.58806e-006 -9.54166e-015 -4.77083e-015 -6.36111e-015 3.18055e-015 0 6.36111e-015 1.80245e-006 -3.17947e-007 1.58806e-006 -0.0128295 0.0023436 9.09682e-005 6.25548e-007 -3.23064e-006 2.9712e-006 1.80245e-006 -3.17947e-007 1.58806e-006 -0.0160614 0.00300972 0.000862999 0 6.36111e-015 -0 1.80245e-006 -3.17947e-007 1.58806e-006 -0.0125886 0.00314111 0.00283521 4.57335e-006 2.49081e-006 -5.07249e-006 1.80245e-006 -3.17947e-007 1.58806e-006 -9.54166e-015 -4.77083e-015 -6.36111e-015 3.18055e-015 0 6.36111e-015 -5.18852 7.34607 10.9435 -36.3339 -7.29673 -16.9217 72.112 -43.5852 52.6229 8.18488 8.80305 1.20632 -0 -3.18055e-015 -0 3.18055e-015 0 -0 -3.18055e-015 3.18055e-015 9.54166e-015 -0 -3.18055e-015 -0 0.012938 0.00230514 -7.72786e-005 9.54166e-015 0 1.90833e-014 -0 -3.18055e-015 -0 0.0162749 0.00304013 -0.000875021 -3.18055e-015 1.27222e-014 -6.36111e-015 -0 -3.18055e-015 -0 0.0146082 0.00368106 -0.00326948 0 0 -9.54166e-015 -0 -3.18055e-015 -0 3.18055e-015 0 -0 -3.18055e-015 3.18055e-015 9.54166e-015 -10.9067 -27.8122 -21.1416 -5.82133 54.0409 4.31507 12.9192 -25.7611 4.43025 8.47777e-007 8.52673e-007 3.46346e-008 12.8509 -27.4623 22.6719 5.35238 53.8248 -4.01126 -13.7186 -24.9449 -6.13487 4.29849e-007 -1.45915e-007 -1.59952e-006 
-0.606739 60.3042 6.45224 1.17163e-007 4.88809 -8.69903e-008 -0.631759 0.233998 -0.256573 -1.26249 0.470815 -0.510561 -1.26248 0.470809 -0.510557 15.4458 3.68002 -1.58419 7.48586 -3.94049 9.37593 3.88433 8.3033 -16.2635 37.0567 -5.17844 21.1378 -73.4851 -43.1279 -53.3741 -6.8464 9.05454 -0.757562 1.13949e-006 -5.36086e-007 -1.27152e-006 3.61829e-006 -6.09914e-006 3.15526e-006 1.11811e-006 -1.89496e-006 -1.20386e-006 1.13949e-006 -5.36086e-007 -1.27152e-006 -0.0128719 0.0023296 8.59832e-005 3.18055e-015 -4.77083e-015 -0 1.13949e-006 -5.36086e-007 -1.27152e-006 -0.0160334 0.00297177 0.000845786 0 6.36111e-015 -0 1.13949e-006 -5.36086e-007 -1.27152e-006 -0.01262 0.00310811 0.00282258 6.36111e-015 -3.18055e-015 6.36111e-015 1.13949e-006 -5.36086e-007 -1.27152e-006 3.61829e-006 -6.09914e-006 3.15526e-006 1.11811e-006 -1.89496e-006 -1.20386e-006 -5.09989 7.86411 10.8065 -36.3339 -7.29678 -16.9217 72.4456 -43.6055 52.8679 8.18039 8.93748 1.37378 6.36111e-015 -9.54166e-015 3.18055e-015 -3.53113e-031 -6.36111e-015 -3.18055e-015 7.97029e-006 -1.49421e-005 1.50419e-005 6.36111e-015 -9.54166e-015 3.18055e-015 0.0129989 0.00230796 -8.37564e-005 -6.36111e-015 3.18055e-015 3.18055e-015 6.36111e-015 -9.54166e-015 3.18055e-015 0.0163355 0.00302985 -0.000867331 1.76556e-031 -3.18055e-015 3.18055e-015 6.36111e-015 -9.54166e-015 3.18055e-015 0.0145884 0.00366831 -0.00325542 7.06225e-031 -1.27222e-014 3.18055e-015 6.36111e-015 -9.54166e-015 3.18055e-015 -3.53113e-031 -6.36111e-015 -3.18055e-015 7.97029e-006 -1.49421e-005 1.50419e-005 -10.7721 -28.7001 -20.8639 -5.82063 54.0367 4.315 12.9016 -25.7928 4.0323 2.52363e-016 -1.12736e-007 3.18055e-015 12.6818 -28.3653 22.3191 5.3516 53.8201 -4.01187 -13.7082 -25.0036 -5.65045 1.9816e-009 -3.38767e-007 -1.61711e-006 
-0.606784 60.2706 6.26452 1.26903e-007 5.5655 7.85666e-008 -0.630377 -0.0243089 -0.260748 -1.26087 -0.0457372 -0.521753 -1.26086 -0.0457391 -0.521748 15.5867 4.01357 -1.64418 7.53032 -3.69422 9.44077 3.7859 8.83361 -16.1203 37.0567 -5.17844 21.1378 -73.8285 -43.1462 -53.6251 -6.82132 9.18905 -0.920182 6.3586e-006 4.12157e-007 -3.53213e-006 -9.54166e-015 3.18055e-015 -9.54166e-015 -9.54166e-015 3.18055e-015 -0 6.3586e-006 4.12157e-007 -3.53213e-006 -0.0128552 0.00232915 8.39046e-005 -3.18055e-015 -1.59028e-015 -0 6.3586e-006 4.12157e-007 -3.53213e-006 -0.0160738 0.00299339 0.000851057 -6.9423e-006 -1.24804e-005 3.78768e-007 6.3586e-006 4.12157e-007 -3.53213e-006 -0.0125633 0.00309831 0.00280948 -2.77608e-006 -1.06843e-005 6.82161e-006 6.3586e-006 4.12157e-007 -3.53213e-006 -9.54166e-015 3.18055e-015 -9.54166e-015 -9.54166e-015 3.18055e-015 -0 -5.01029 8.38198 10.6684 -36.3339 -7.29678 -16.9217 72.7797 -43.6248 53.1135 8.17555 9.07186 1.54129 5.9487e-007 2.23445e-006 2.77775e-006 -6.28045e-007 2.37901e-006 5.70138e-007 3.23868e-006 3.96386e-006 3.58186e-006 5.9487e-007 2.23445e-006 2.77775e-006 0.0129508 0.00231955 -8.56724e-005 1.85495e-022 3.34158e-006 -3.18055e-015 5.9487e-007 2.23445e-006 2.77775e-006 0.0163095 0.00304032 -0.000869192 6.36111e-015 6.36111e-015 -6.36111e-015 5.9487e-007 2.23445e-006 2.77775e-006 0.014569 0.0036772 -0.00325185 2.64443e-006 2.24417e-006 8.04129e-007 5.9487e-007 2.23445e-006 2.77775e-006 -6.28045e-007 2.37901e-006 5.70138e-007 3.23868e-006 3.96386e-006 3.58186e-006 -10.6316 -29.5862 -20.5817 -5.81956 54.0319 4.31482 12.8836 -25.8243 3.63422 -2.38542e-015 -3.60297e-016 -3.18055e-015 12.5049 -29.2666 21.9604 5.35074 53.8154 -4.01242 -13.6971 -25.0621 -5.16581 -4.25856e-007 -3.0649e-007 -1.63287e-006 
